#tb 0: 1/1000
0,          0,          0,        0,      768, d801797c94039b0a166d46e151ec912c
0,         33,         33,        0,      768, 161ec22caa3689b214d9ab993424584b
0,         66,         66,        0,      768, 499b589ecf1873e388c256ce948eabb9
0,        100,        100,        0,      768, 22bc77650e3df70e3e36f2a1b8d8aa71
0,        133,        133,        0,      768, 750e40530257a68211596a60de18bffa
0,        166,        166,        0,      768, 4f812a92157e7186642656b59bc28a3d
0,        200,        200,        0,      768, a3f141cec127a2c2e16740b8dd4ce56a
0,        233,        233,        0,      768, a5ba9959bf65ab6e254e5b359a3d59b5
0,        266,        266,        0,      768, baa72b8a57277d9e9ad4b92aab04f5d1
0,        300,        300,        0,      768, 4cb9aebb6c9d5bd164461726de201549
